<svg xmlns="http://www.w3.org/2000/svg" height="487.595" viewBox="0 0 365.696 365.696" width="487.595" xmlns:v="https://vecta.io/nano"><path d="M243.188 182.859L356.32 69.727c12.5-12.5 12.5-32.766 0-45.246L341.238 9.398c-12.504-12.504-32.77-12.504-45.25 0L182.859 122.527 69.727 9.375c-12.5-12.5-32.766-12.5-45.246 0L9.375 24.457c-12.5 12.504-12.5 32.77 0 45.25l113.152 113.152L9.398 295.988c-12.504 12.504-12.504 32.77 0 45.25L24.48 356.32c12.5 12.5 32.766 12.5 45.246 0l113.133-113.133L295.988 356.32c12.504 12.5 32.77 12.5 45.25 0l15.082-15.082c12.5-12.504 12.5-32.77 0-45.25zm0 0"/></svg>