<svg xmlns="http://www.w3.org/2000/svg" width="512" height="512" fill="none" xmlns:v="https://vecta.io/nano"><path d="M416.359 261.853c0-18.511-4.023-36.315-11.96-52.918-15.534-32.501-17.871-68.593-6.582-101.629 2.313-6.768 5.953-13.468 1.315-19.953a12.49 12.49 0 0 0-10.141-5.213H326.89l4.989-24.263a14.49 14.49 0 0 1 6.086-9.117l51.504-34.959a7.5 7.5 0 0 0 1.994-10.415 7.5 7.5 0 0 0-10.415-1.994L329.542 36.35a29.4 29.4 0 0 0-12.352 18.505l-5.61 27.284h-76.735l37.688-37.621a11.71 11.71 0 0 0 3.434-8.513 11.66 11.66 0 0 0-3.769-8.327c-41.659-38.111-105.615-36.699-145.604 3.214-39.997 39.935-41.405 103.778-3.196 145.384 2.132 2.305 5.161 3.665 8.309 3.73a9.76 9.76 0 0 0 .242.002c3.075 0 6.07-1.231 8.26-3.408l48.992-48.9c5.279 27.412 1.699 56.142-10.533 82.512a122.55 122.55 0 0 0-7.072 19.377 7.5 7.5 0 0 0 5.27 9.202 7.5 7.5 0 0 0 9.202-5.27 107.49 107.49 0 0 1 6.204-16.999c15.641-33.716 18.519-70.965 8.279-105.493-1.006-3.394-3.375-10.409-4.57-13.894 2.912-.703 109.382.738 112.514 0l-11.649 56.654c-7.809 3.702-14.738 7.214-24.145 9.436-11.773 2.782-24.04 2.736-37.498-.137-3.408-.727-6.99.006-9.83 2.015a12.52 12.52 0 0 0-5.175 8.582c-2.208 16.878-7.028 33.416-14.326 49.157-5.688 12.282-8.573 25.408-8.573 39.015 0 51.624 42.407 93.623 94.532 93.623s94.533-41.999 94.533-93.623c0-14.003-3.04-27.457-9.033-39.99a173.92 173.92 0 0 1-5.081-11.707c-1.506-3.859-5.857-5.766-9.712-4.257a7.5 7.5 0 0 0-4.256 9.713c1.671 4.277 3.528 8.558 5.521 12.723 5.02 10.495 7.564 21.772 7.564 33.518 0 43.354-35.679 78.626-79.535 78.626s-79.535-35.271-79.535-78.626c0-11.415 2.417-22.42 7.183-32.709 7.555-16.296 12.671-33.394 15.221-50.861 14.513 2.762 28.444 2.606 41.445-.464 6.476-1.527 11.925-3.563 16.942-5.75L272.029 274.49a7.5 7.5 0 0 0 5.834 8.855c.51.104 1.018.155 1.519.155 3.484 0 6.607-2.443 7.336-5.99l23.279-113.216c6.111-2.594 12.716-4.781 21.292-5.934 4.795-.642 9.715-.888 14.653-.737.339 7.651 1.18 15.348 2.503 22.911.713 4.08 4.596 6.813 8.678 6.095a7.5 7.5 0 0 0 6.095-8.678 164.34 164.34 0 0 1-2.373-23.117c-.202-6.531-5.289-11.727-11.831-12.089a105.36 105.36 0 0 0-19.719.751c-5.963.802-11.103 2.025-15.738 3.485l10.249-49.845h61.638l-1.818 5.32c-12.566 36.771-9.994 76.882 7.244 112.946 6.962 14.567 10.493 30.196 10.493 46.45 0 59.895-49.134 108.624-109.528 108.624-28.539 0-55.559-10.826-76.082-30.485-20.456-19.594-32.305-45.873-33.367-73.997-.156-4.138-3.609-7.341-7.777-7.211a7.5 7.5 0 0 0-7.209 7.777c1.208 32.035 14.697 61.959 37.979 84.261 17.845 17.094 40.01 28.304 63.958 32.633v81.714a3.48 3.48 0 0 1-1.928 3.128l-43.636 21.933c-4.785 2.4-7.266 7.714-6.033 12.923A11.45 11.45 0 0 0 228.924 512h125.817c5.357 0 9.96-3.64 11.192-8.851a11.45 11.45 0 0 0-6.026-12.917L316.264 468.3c-1.194-.602-1.936-1.802-1.936-3.132v-81.72c57.963-10.542 102.031-61.052 102.031-121.595h0zM132.122 47.023l46.924 46.828.483 1.431-67.133-7.531c2.908-14.645 9.492-28.699 19.726-40.728h0zm-.011 116.471a89.61 89.61 0 0 1-21.405-60.841l74.04 8.305-52.635 52.536zm56.43-81.354l-45.803-45.708c12.06-10.216 26.147-16.787 40.828-19.686l7.362 65.396h-2.387v-.001zm25.075 0h-7.596l-7.551-67.077c21.576-.627 43.36 6.445 60.956 21.349L213.616 82.14zm126.363 414.863h-96.288l30.453-15.306c6.284-3.16 10.189-9.494 10.189-16.528v-79.925a127.15 127.15 0 0 0 7.5.229c2.518 0 5.015-.083 7.497-.23v79.926c0 7.026 3.901 13.357 10.19 16.528l30.459 15.306z" fill="#48811a"/></svg>