<svg xmlns="http://www.w3.org/2000/svg" xmlns:xlink="http://www.w3.org/1999/xlink" width="1080.049" height="748.002" xmlns:v="https://vecta.io/nano"><path d="M772.232 511.469c0 67.693-40.242 91.329-89.884 91.329s-89.884-23.636-89.884-91.329 89.884-153.809 89.884-153.809 89.884 86.116 89.884 153.809z" fill="#48811a"/><path fill="#3f3d56" d="M679.994 535.79l38.311-70.088-38.167 61.201.414-25.473 26.404-50.708-26.294 43.966.744-45.815 28.274-40.369-28.157 33.165.465-84.009-2.797 106.449-28.631-43.825 28.285 52.808-2.679 51.167-.079-1.358-33.139-46.304 33.038 51.102-.335 6.399-.06.097.028.525-6.796 68.28h9.079l1.09-5.516 32.957-50.977-32.875 45.936.92-56.653z"/><path d="M1080.049 293.814c0 129.31-76.873 174.461-171.701 174.461s-171.701-45.15-171.701-174.461S908.348 0 908.348 0s171.701 164.503 171.701 293.814z" fill="#f2f2f2"/><g fill="#3f3d56"><path d="M902.093 448.494l1.758-108.221 73.184-133.885-72.908 116.908.791-48.661 50.437-96.864-50.228 83.987v.001l1.422-87.519 54.009-77.116-53.786 63.354L907.661 0l-5.583 212.444.459-8.764-54.912-84.052 54.031 100.875-5.116 97.743-.153-2.594-63.303-88.452 63.112 97.617-.64 12.224-.115.184.053 1.003-12.981 247.982h17.343l2.081-128.087 62.957-97.378-62.801 87.749z"/><use xlink:href="#B"/></g><use xlink:href="#B" opacity=".1"/><path d="M1073 564.558c0 38.595-250.369 139.767-543.052 139.767S0 673.037 0 634.442s231.442-36.398 524.125-36.398S1073 525.963 1073 564.558z" fill="#3f3d56"/><ellipse cx="535.878" cy="641.774" rx="225.044" ry="17.407" opacity=".1"/><path d="M357.598 292.966s65.883 1.22 53.683 12.811-57.953 0-57.953 0z" fill="#a0616a"/><path d="M220.329 152.183s26.6-4.75 35.849 16.724 28.244 82.716 28.244 82.716 50.833 33.648 60.079 32.542 25.052 1.15 22.152 11.237-1.612 21.525-8.287 22.927-17.291-11.98-25.415-5.534-80.53-17.096-85.179-21.974-43.279-110.501-43.279-110.501 1.545-28.48 15.835-28.136z" fill="#48811a"/><path d="M277.379 605.607l3.05 25.621-25.621 6.711-14.641-6.711v-22.571l37.212-3.05zm-68.934 16.471l3.05 25.621-25.621 6.711-14.641-6.711v-22.571l37.212-3.05z" fill="#a0616a"/><path d="M279.819 325.602l11.591 42.092 17.081 85.405s4.88 20.741-4.88 45.752-27.451 106.756-23.791 111.636-41.482 8.54-40.872 3.66 6.71-71.984 6.71-71.984 8.54-59.173 12.811-66.493-19.521-25.621-19.521-25.621-6.1 70.154-15.251 76.254-7.93 100.655-12.201 101.875-35.382 6.1-39.042 0 0-107.976 0-107.976 20.741-77.474 16.471-88.455-1.83-57.953-1.83-57.953-15.861-35.992-7.32-54.903z" fill="#2f2e41"/><g fill="#a0616a"><path d="M277.989 91.35s-25.621 31.722-24.401 45.752-40.262-25.621-40.262-25.621 29.892-40.262 29.892-48.803 34.772 28.672 34.772 28.672z"/><circle cx="277.684" cy="62.984" r="40.262"/></g><path d="M176.217 302.781c-1.824 6.796-4.087 14.5-3.764 20.991.207 4.203 11.365 6.96 26.793 8.766 14.305 1.678 32.283 2.532 48.626 2.971 17.16.464 32.502.464 39.878.464 21.961 0 4.27-14.031-4.27-20.741s-6.71-101.875-6.1-114.076-5.49-47.582-5.49-54.293-14.354-24.224-14.354-24.224-3.337 9.584-16.758-3.227-31.112-16.471-31.112-16.471c-13.421 4.88-35.992 58.563-37.212 67.714-.494 3.715-.085 22.742.744 44.465 1.202 31.752 3.3 69.287 4.746 73.271 1.141 3.142-.122 8.412-1.726 14.391z" fill="#48811a"/><path fill="#a0616a" d="M241.387 338.413l4.27 15.251-16.471 17.081-5.49-23.792 17.691-8.54z"/><g fill="#2f2e41"><use xlink:href="#C"/><use xlink:href="#C" x="-68.933" y="16.471"/><path d="M232.481 95.123c-1.301.84-2.994 1.692-4.296.854a194.66 194.66 0 0 1-10.803-37.403c-.822-4.495-1.393-9.492 1.104-13.319.985-1.509 2.403-2.744 3.124-4.395 1.093-2.501.373-5.396.736-8.102.76-5.667 6.118-9.62 11.505-11.537s11.238-2.512 16.373-5.027c4.876-2.389 8.781-6.35 13.302-9.356s10.313-5.061 15.348-3.03c4.454 1.797 7.229 6.337 11.439 8.649 2.857 1.569 6.173 2.005 9.362 2.679a59.92 59.92 0 0 1 24.34 11.308c1.741 1.242 3.241 2.789 4.43 4.566 5.403 8.895-4.271 20.989-.003 30.481l-9.227-7.281a32.13 32.13 0 0 0-8.24-5.237c-3.056-1.158-6.676-1.297-9.452.427-3.896 2.42-4.953 7.476-6.314 11.856s-4.37 9.237-8.956 9.125c-6.235-.153-8.416-8.855-14.012-11.61-3.648-1.796-8.24-.613-11.35 2.006s-4.976 6.42-6.344 10.248c-.855 2.393-1.658 5.09-3.177 7.163-1.675 2.287-3.818 2.471-5.608 4.179-4.658 4.446-7.522 9.033-13.284 12.756z"/></g><path d="M176.217 302.781c7.583 10.999 16.129 22.345 23.029 29.757 14.305 1.678 32.283 2.532 48.626 2.971-2.92-3.959-6.57-7.321-10.755-9.907-7.93-4.88-26.841-62.833-26.841-62.833s23.181-59.783 29.282-82.354-17.691-35.382-17.691-35.382c-10.981-9.15-29.892 12.201-29.892 12.201l-18.777 57.886c1.202 31.752 3.3 69.287 4.746 73.271 1.141 3.142-.122 8.412-1.726 14.391z" opacity=".1"/><path d="M220.036 140.153s23.791 12.811 17.691 35.382-29.282 82.354-29.282 82.354 18.911 57.953 26.841 62.833 18.911 16.471 10.371 22.571-14.641 15.861-20.741 12.811-6.1-20.131-16.471-20.131-52.463-63.443-53.073-70.154 34.772-113.466 34.772-113.466 18.911-21.351 29.892-12.201z" fill="#48811a"/><path d="M714.746 306.892l-6.863-6.863c-8.336-8.336-21.85-8.336-30.186 0L544.582 433.144 411.467 300.029c-8.336-8.336-21.85-8.336-30.186 0l-6.863 6.863c-4.003 4.003-6.252 9.432-6.252 15.093s2.249 11.09 6.252 15.093l133.115 133.115-133.115 133.115c-4.003 4.003-6.252 9.432-6.252 15.093s2.249 11.09 6.252 15.093l6.863 6.863c8.336 8.336 21.85 8.336 30.186 0l133.115-133.115 133.115 133.115c8.336 8.336 21.85 8.336 30.186 0l6.863-6.863c8.336-8.336 8.336-21.85 0-30.186L581.631 470.193l133.115-133.115c8.336-8.336 8.336-21.85 0-30.186z" fill="#ff6584"/><path d="M369.667 610.546l129.162-129.162-1.243-1.243-123.169 123.168a21.26 21.26 0 0 0-4.75 7.237zm2.91-299.327c8.336-8.336 21.851-8.336 30.186 0l133.115 133.115 133.115-133.115c8.336-8.336 21.851-8.336 30.186 0l6.863 6.863c6.017 6.018 7.884 15.036 4.75 22.949l3.953-3.953c4.003-4.003 6.252-9.432 6.252-15.093s-2.249-11.09-6.252-15.093l-6.863-6.863c-8.336-8.336-21.851-8.336-30.186 0L544.582 433.144 411.467 300.029c-8.336-8.336-21.851-8.336-30.186 0l-6.863 6.863a21.26 21.26 0 0 0-4.75 7.237zm210.297 160.218l-9.947 9.947 133.115 133.115c6.017 6.018 7.884 15.036 4.75 22.949l3.953-3.953c4.003-4.003 6.252-9.432 6.252-15.093s-2.249-11.09-6.252-15.093z" opacity=".1"/><path d="M155 560.192c0 56.222-33.423 75.852-74.652 75.852s-74.652-19.63-74.652-75.852 74.652-127.744 74.652-127.744S155 503.971 155 560.192z" fill="#48811a"/><path fill="#3f3d56" d="M78.393 580.392l31.819-58.211-31.699 50.83.344-21.157 21.929-42.115-21.838 36.516.618-38.051 23.482-33.529-23.385 27.546.386-69.773-2.323 88.41-23.779-36.398 23.491 43.858-2.224 42.497-.066-1.128-27.523-38.457 27.439 42.442-.278 5.315-.05.08.023.436-5.644 56.709h7.541l.905-4.581 27.372-42.338-27.304 38.151.764-47.052z"/><defs ><path id="B" d="M1073 564.558c0 38.595-250.369 183.444-543.052 183.444S0 673.037 0 634.442s231.442 7.28 524.125 7.28S1073 525.963 1073 564.558z"/><path id="C" d="M246.877 624.518s12.811 14.641 22.571 4.88 9.15-15.861 10.981-15.861 29.282 24.401 29.282 24.401 46.972 10.981 21.351 18.911-98.215 2.44-98.215 0-1.83-34.772 4.88-34.772z"/></defs></svg>