<svg xmlns="http://www.w3.org/2000/svg" width="512" height="466" fill="#48811a" xmlns:v="https://vecta.io/nano"><path d="M303.995 176.359c-3.001 0-5.941.35-8.796 1.048-9.088-15.117-25.435-24.538-43.471-24.538s-34.382 9.421-43.47 24.538c-2.855-.697-5.794-1.048-8.795-1.048-20.449 0-37.087 16.638-37.087 37.087 0 18.968 14.311 34.654 32.704 36.829l11.142 59.82a15.18 15.18 0 0 0 14.93 12.8h61.155c7.416 0 13.798-5.488 14.93-12.799l11.142-59.821c18.393-2.175 32.704-17.862 32.704-36.829-.001-20.448-16.639-37.087-37.088-37.087zm-22.451 130.522h-59.63l-4.171-22.39h67.971l-4.17 22.39zm22.451-72.364c-.495 0-1.042-.023-1.675-.073-4.093-.304-7.748 2.492-8.498 6.517l-5.125 27.513H214.76l-5.125-27.513c-.75-4.025-4.409-6.819-8.498-6.517-.634.05-1.18.073-1.675.073-11.619 0-21.071-9.451-21.071-21.07s9.453-21.071 21.071-21.071c3.239 0 6.346.717 9.235 2.128 1.986.971 4.287 1.078 6.353.294s3.719-2.386 4.564-4.43a34.64 34.64 0 0 1 32.112-21.483c14.115 0 26.72 8.432 32.114 21.483.845 2.044 2.496 3.647 4.564 4.43s4.367.677 6.353-.294c2.889-1.411 5.996-2.128 9.235-2.128 11.619 0 21.071 9.453 21.071 21.071s-9.449 21.07-21.068 21.07h0zm109.798-20.164l-.044-.674c-4.196-36.394-20.863-70.734-46.93-96.693-26.075-25.967-60.497-42.491-96.924-46.53l-5.558-5.558c-3.367-3.367-7.845-5.222-12.609-5.222a17.71 17.71 0 0 0-12.608 5.222l-5.652 5.653c-.37-.008-.742-.001-1.118.044-36.47 4.32-70.821 21.158-96.726 47.411-25.668 26.014-41.968 60.204-45.987 96.377l-5.567 5.567c-6.951 6.952-6.951 18.264 0 25.215l5.566 5.566c4.053 36.486 20.573 70.897 46.607 97.001 26.139 26.21 60.678 42.853 97.315 46.92l5.563 5.562a17.71 17.71 0 0 0 25.217.001l5.569-5.568c36.32-4.037 70.598-20.427 96.66-46.268 26.388-26.166 43.172-60.834 47.26-97.618.001-.013.001-.025.002-.036l5.561-5.561c6.951-6.952 6.951-18.263 0-25.215l-5.596-5.595zm-58.276-86.019c18.374 18.298 31.568 41.208 38.262 66.005L289.955 90.515c24.596 6.641 47.338 19.67 65.562 37.819zM147.583 336.421c-18.204-18.252-31.244-41.004-37.892-65.636l103.814 103.814c-24.762-6.683-47.623-19.828-65.922-38.178zm104.145 52.999c-.341 0-.842-.092-1.281-.532L95.396 233.838c-.707-.705-.707-1.857 0-2.562l69.891-69.891a8.01 8.01 0 0 0 0-11.326c-3.129-3.126-8.199-3.126-11.326 0l-44.267 44.267c6.582-24.373 19.427-46.925 37.331-65.071 18.377-18.624 41.464-31.989 66.482-38.742l-38.891 38.892a8.01 8.01 0 0 0 0 11.326c3.128 3.126 8.198 3.125 11.325 0l64.505-64.506a1.78 1.78 0 0 1 1.281-.531c.343 0 .844.092 1.283.532l155.052 155.049c.707.705.707 1.856 0 2.562L253.011 388.888c-.439.441-.94.532-1.283.532h0zm103.56-52.415c-18.198 18.045-40.837 30.977-65.329 37.588l103.815-103.815c-6.718 24.901-19.981 47.88-38.486 66.227h0zm145.647-71.298v-84.305a8.01 8.01 0 0 0-8.008-8.008 8.01 8.01 0 0 0-8.008 8.008v83.243h-17.284v-64.012c0-7.54-4.253-14.513-10.834-17.764-4.374-2.159-6.896-6.859-6.275-11.693l17.168-133.8a8.67 8.67 0 0 1 8.577-7.548 8.66 8.66 0 0 1 8.648 8.648V149.37a8.01 8.01 0 0 0 8.008 8.008 8.01 8.01 0 0 0 8.008-8.008V38.475c0-13.599-11.064-24.664-24.665-24.664-12.371 0-22.888 9.254-24.463 21.526l-8.404 65.496C400.255 38.137 328.682 0 251.73 0 186.526 0 125.413 26.837 81.455 74.173V21.82a8.01 8.01 0 0 0-8.008-8.008 8.01 8.01 0 0 0-8.008 8.008v60.325H48.735V21.82a8.01 8.01 0 0 0-8.008-8.008 8.01 8.01 0 0 0-8.008 8.008v60.325H16.016V21.82a8.01 8.01 0 0 0-8.008-8.008A8.01 8.01 0 0 0 0 21.82v103.634c0 10.57 7.377 19.45 17.253 21.762v118.491c-6.448 2.387-11.065 8.579-11.065 15.846v126.759c0 19.358 15.749 35.106 35.107 35.106h1.233c19.357 0 35.107-15.748 35.107-35.106V386.72c19.231 21.667 42.516 39.781 68.219 52.946 32.964 16.884 68.586 25.446 105.875 25.446 75.302 0 145.417-36.486 188.826-96.771v39.971c0 19.358 15.748 35.106 35.106 35.106h1.233c19.359 0 35.107-15.748 35.107-35.106V281.553c0-7.267-4.618-13.459-11.065-15.846zM61.618 408.312c0 10.526-8.564 19.09-19.09 19.09h-1.233c-10.527 0-19.09-8.563-19.09-19.09V281.553c0-.491.4-.892.892-.892h37.631c.491 0 .892.401.892.892v126.759zm3.82-282.858a6.34 6.34 0 0 1-6.332 6.332 8.57 8.57 0 0 0-8.555 8.555v124.305H33.269V142.707c0-6.022-4.899-10.922-10.922-10.922a6.34 6.34 0 0 1-6.332-6.332V98.159h49.422v27.295h.001zm386.181 140.253c-6.448 2.387-11.065 8.579-11.065 15.846v57.061c-38.377 68.182-110.595 110.482-188.826 110.482-34.726 0-67.89-7.969-98.574-23.686-29.278-14.996-55.194-36.885-74.95-63.301-.179-.239-.37-.463-.569-.676v-79.88c0-7.267-4.618-13.459-11.065-15.846V146.521c8.665-3.078 14.885-11.36 14.885-21.067V98.551a7.89 7.89 0 0 0 .963-1.002c41.372-51.815 103.083-81.532 169.309-81.532 77.963 0 149.999 42.043 188.464 109.842l-5.554 43.279a27.45 27.45 0 0 0 15.068 28.093c1.162.573 1.912 1.909 1.912 3.403v65.073h.001zm44.365 142.605c0 10.526-8.565 19.09-19.091 19.09h-1.233c-10.526 0-19.09-8.563-19.09-19.09V281.553c0-.491.4-.892.891-.892h37.631c.491 0 .892.401.892.892v126.759z"/></svg>