<svg xmlns="http://www.w3.org/2000/svg" width="30" height="28" fill="none" fill-rule="evenodd" xmlns:v="https://vecta.io/nano"><path d="M15 22.309V0a.98.98 0 0 1 .948.683l2.87 8.597a1 1 0 0 0 .948.683h9.229c.975 0 1.374 1.254.577 1.817l-7.419 5.246a1 1 0 0 0-.371 1.133l2.845 8.521c.306.916-.737 1.691-1.526 1.133l-7.525-5.32a1 1 0 0 0-.577-.183z" fill="#a7a7a7"/><path d="M15 22.308V0a.98.98 0 0 0-.949.683L11.181 9.28a1 1 0 0 1-.948.683h-9.23c-.975 0-1.374 1.254-.577 1.817l7.42 5.245a1 1 0 0 1 .371 1.133l-2.845 8.52c-.306.916.737 1.691 1.526 1.133l7.526-5.32a1 1 0 0 1 .577-.183z" fill="#ffcc47"/></svg>