<svg xmlns="http://www.w3.org/2000/svg" viewBox="0 0 512 512" xmlns:v="https://vecta.io/nano"><path d="M376.951 28.507h-.899c-66.027 0-102.942 48.32-120.049 81.033-17.408-32.714-54.022-81.033-120.049-81.033h-1.199C63.324 29.108 3.792 90.032.191 167.164c-4.503 94.538 70.937 158.164 183.782 254.204l62.126 53.423 9.905 8.703 9.905-8.703 62.126-53.423c112.844-96.04 188.278-159.666 183.775-254.204-3.604-77.133-63.429-138.057-134.859-138.657z" fill="#ff3636"/><path d="M511.808 167.164c4.503 94.538-70.93 158.164-183.775 254.204l-62.126 53.423-9.905 8.703V109.54c17.107-32.714 54.022-81.033 120.049-81.033h.899c71.431.6 131.256 61.524 134.858 138.657z" fill="#f40000"/></svg>