<svg width="512" height="512" viewBox="0 0 512 512" fill="none" xmlns="http://www.w3.org/2000/svg">
<path d="M256.969 252.285C237.523 252.285 218.074 244.883 203.273 230.078C173.664 200.473 173.664 152.297 203.273 122.688C217.613 108.344 236.684 100.445 256.969 100.445C277.254 100.445 296.32 108.348 310.664 122.688C340.273 152.297 340.273 200.473 310.664 230.078C295.859 244.883 276.414 252.285 256.969 252.285ZM256.969 130.504C245.215 130.504 233.461 134.977 224.512 143.926C206.613 161.824 206.613 190.945 224.512 208.844C233.18 217.512 244.707 222.285 256.969 222.285C269.23 222.285 280.758 217.512 289.426 208.844C307.324 190.945 307.324 161.824 289.426 143.926C280.477 134.977 268.723 130.504 256.969 130.504Z" fill="#48811A"/>
<path d="M257.145 512L245.531 498.359C238.734 490.371 79 301.309 79 177.969C79 79.8359 158.836 0 256.969 0C355.102 0 434.938 79.8359 434.938 177.969C434.938 295.242 275.344 489.953 268.551 498.184L257.145 512ZM256.969 30.0352C175.398 30.0352 109.035 96.3984 109.035 177.969C109.035 223.812 136.371 290.156 188.09 369.832C214.93 411.18 241.957 446.195 256.805 464.727C271.676 445.688 298.961 409.52 325.969 367.387C377.609 286.836 404.902 221.332 404.902 177.969C404.902 96.3984 338.539 30.0352 256.969 30.0352V30.0352Z" fill="#48811A"/>
</svg>
