<svg xmlns="http://www.w3.org/2000/svg" width="512" height="512" fill="#48811a" xmlns:v="https://vecta.io/nano"><path d="M256.969 252.285c-19.446 0-38.895-7.402-53.696-22.207-29.609-29.605-29.609-77.781 0-107.39 14.34-14.344 33.411-22.243 53.696-22.243s39.351 7.903 53.695 22.243c29.609 29.609 29.609 77.785 0 107.39-14.805 14.805-34.25 22.207-53.695 22.207zm0-121.781c-11.754 0-23.508 4.473-32.457 13.422-17.899 17.898-17.899 47.019 0 64.918 8.668 8.668 20.195 13.441 32.457 13.441s23.789-4.773 32.457-13.441c17.898-17.899 17.898-47.02 0-64.918-8.949-8.949-20.703-13.422-32.457-13.422zM257.145 512l-11.614-13.641C238.734 490.371 79 301.309 79 177.969 79 79.836 158.836 0 256.969 0s177.969 79.836 177.969 177.969c0 117.273-159.594 311.984-166.387 320.215L257.145 512zm-.176-481.965c-81.571 0-147.934 66.363-147.934 147.934 0 45.843 27.336 112.187 79.055 191.863 26.84 41.348 53.867 76.363 68.715 94.895 14.871-19.039 42.156-55.207 69.164-97.34 51.64-80.551 78.933-146.055 78.933-189.418 0-81.571-66.363-147.934-147.933-147.934h0z"/></svg>