<svg xmlns="http://www.w3.org/2000/svg" width="97" height="49" fill="none" xmlns:v="https://vecta.io/nano"><rect x="5.162" y="5.088" width="33" height="33" rx="3" transform="rotate(9 5.162 5.088)" fill="#ffe121"/><path d="M20.049 30.378l6.927-.484.285 4.082-12.215.854-1.518-21.709 5.288-.37 1.233 17.627z" fill="#fff"/><path d="M42.586 20.489l.732 10.474c.073 1.047.387 1.836.942 2.365s1.331.759 2.329.689 1.743-.406 2.235-1.008.702-1.427.629-2.475l-.732-10.475 4.265-.298.731 10.449c.109 1.563-.131 2.908-.72 4.035s-1.43 2.005-2.523 2.632c-1.076.627-2.303.988-3.683 1.084s-2.637-.083-3.772-.538c-1.119-.473-2.032-1.228-2.74-2.264-.709-1.053-1.117-2.361-1.227-3.924l-.731-10.449 4.265-.298zm37.485-2.621l-3.34 17.826-5.162.361-3.599-11.327-2.087 11.724-5.162.361-5.663-17.197 4.564-.319 3.41 12.568 2.226-12.962 4.688-.328L73.83 31.11l1.653-12.922 4.589-.321zm6.642 2.969l.248 3.541 5.711-.399.23 3.292-5.711.399.269 3.841 6.459-.452.239 3.417-10.724.75-1.224-17.507 10.724-.75.239 3.417-6.459.452z" fill="#7cbd1e"/></svg>