<svg xmlns="http://www.w3.org/2000/svg" xmlns:xlink="http://www.w3.org/1999/xlink" width="512" height="512" fill="none" xmlns:v="https://vecta.io/nano"><g clip-path="url(#A)" fill="#48811a"><path d="M252.768 246.175a7.5 7.5 0 1 0 0-15 7.5 7.5 0 1 0 0 15zm0 114.496a7.5 7.5 0 1 0 0-15 7.5 7.5 0 1 0 0 15zm-28.646-114.496a7.5 7.5 0 1 0 0-15h-34.091a7.5 7.5 0 1 0 0 15h34.091zm96.077 0a7.5 7.5 0 1 0 0-15h-34.09a7.5 7.5 0 1 0 0 15h34.09zm-96.077 114.496a7.5 7.5 0 1 0 0-15h-34.091a7.5 7.5 0 1 0 0 15h34.091zm96.077 0a7.5 7.5 0 1 0 0-15h-34.09a7.5 7.5 0 1 0 0 15h34.09zM270.081 82.726a7 7 0 0 0-4.917 6.683v38.271a7 7 0 1 0 14 0v-15.816l13.118 18.996c1.94 2.803 5.341 4.031 8.458 3.057 3.165-.988 5.293-4.014 5.292-7.596l-.358-37.051c-.037-3.866-3.199-6.977-7.067-6.932-3.866.038-6.969 3.202-6.932 7.067l.156 16.164-13.907-20.138a7 7 0 0 0-7.843-2.705zm-77.103 5.907c-.713-3.499-3.701-6.083-7.266-6.284a7.88 7.88 0 0 0-7.925 5.428l-.073.239-4.782 16.775-4.969-16.843-.077-.245c-1.137-3.386-4.427-5.587-7.981-5.347-3.564.238-6.524 2.853-7.215 6.441l-6.739 37.339a7 7 0 0 0 5.646 8.132c3.8.688 7.445-1.84 8.132-5.645l2.141-11.86 3.631 12.307.078.247c1.079 3.212 4.072 5.363 7.456 5.363h.04c3.401-.017 6.393-2.202 7.443-5.437l.074-.242 3.502-12.285 2.29 11.98a7 7 0 0 0 8.189 5.562 7 7 0 0 0 5.561-8.189l-7.156-37.436zm47.278 7.879a7 7 0 1 0 0-14h-16.008a7 7 0 0 0-7 7v37.993a7 7 0 0 0 7 7h16.008a7 7 0 1 0 0-14h-9.008v-4.996h7.828a7 7 0 1 0 0-14h-7.828v-4.996h9.008v-.001zm90.494-14.175a7 7 0 0 0-7 7v26.384c0 6.588 3.111 11.917 9.246 15.836 3.235 2.067 6.877 3.117 10.827 3.123h.032c3.382 0 6.565-.739 9.46-2.197 7.144-3.598 11.078-9.56 11.078-16.789V89.337a7 7 0 1 0-14 0v26.356c0 .967 0 2.585-3.375 4.285-.937.472-1.971.701-3.163.701-1.272-.002-2.355-.303-3.322-.92-2.578-1.647-2.783-2.758-2.783-4.038V89.337a7 7 0 0 0-7-7h0z"/><use xlink:href="#B"/><use xlink:href="#C"/><path d="M344.071 273.248H166.16a7.5 7.5 0 1 0 0 15h177.911a7.5 7.5 0 1 0 0-15zm0 30.861H166.16a7.5 7.5 0 1 0 0 15h177.911a7.5 7.5 0 1 0 0-15zM158.66 392.127a7.5 7.5 0 0 0 7.5 7.5h177.911a7.5 7.5 0 1 0 0-15H166.16a7.5 7.5 0 0 0-7.5 7.5h0zm7.5 38.361h177.911a7.5 7.5 0 1 0 0-15H166.16a7.5 7.5 0 1 0 0 15h0zM431.623 0H237.076a7.5 7.5 0 1 0 0 15h194.546c5.234 0 9.493 4.258 9.493 9.493v463.014c0 5.234-4.258 9.493-9.493 9.493H80.378c-5.234 0-9.493-4.259-9.493-9.493V24.493c0-5.234 4.259-9.493 9.493-9.493h126.699a7.5 7.5 0 1 0 0-15H80.378C66.872 0 55.885 10.988 55.885 24.493v463.014c0 13.505 10.988 24.493 24.493 24.493h351.245c13.505 0 24.493-10.987 24.493-24.493V24.493C456.115 10.988 445.128 0 431.623 0h0zm-41.952 41.662H172.793l2.557-2.557a7.5 7.5 0 0 0-10.607-10.606l-76.706 76.706a7.5 7.5 0 0 0 0 10.606c1.464 1.465 3.384 2.197 5.303 2.197s3.839-.732 5.303-2.197l5.355-5.355v343.646c0 9.131 7.429 16.56 16.56 16.56h81.101a7.5 7.5 0 1 0 0-15H120.56c-.86 0-1.56-.7-1.56-1.56V95.456l38.794-38.794h231.877c.86 0 1.56.7 1.56 1.56v359.796l-37.644 37.644H231.661a7.5 7.5 0 1 0 0 15h107.034c-2.235 2.939-2.019 7.148.666 9.832 1.464 1.465 3.384 2.197 5.303 2.197s3.839-.732 5.303-2.197l76.706-76.706a7.5 7.5 0 0 0-10.606-10.606l-9.836 9.836V58.222c0-9.131-7.429-16.56-16.56-16.56h0z"/></g><defs><clipPath id="A"><path fill="#fff" d="M0 0h512v512H0z"/></clipPath><path id="B" d="M158.66 167.369a7.5 7.5 0 0 0 7.5 7.5h177.911a7.5 7.5 0 1 0 0-15H166.16a7.5 7.5 0 0 0-7.5 7.5h0z"/><path id="C" d="M344.071 190.73H166.16a7.5 7.5 0 1 0 0 15h177.911a7.5 7.5 0 1 0 0-15z"/></defs></svg>