<svg xmlns="http://www.w3.org/2000/svg" width="310" height="170" fill="none" xmlns:v="https://vecta.io/nano"><path d="M310 0H0V170H310V0Z" fill="#d6d6d6"/><g fill="#000"><path d="M180.135 67.152c.72-.585 1.646-.97 2.649-1.102s2.032-.003 2.941.368L232 97.579v35.526c0 2.094-1.021 4.102-2.838 5.582s-4.281 2.313-6.85 2.313H86.692c-1.273 0-2.533-.204-3.709-.6s-2.244-.978-3.144-1.712-1.614-1.603-2.101-2.561-.738-1.985-.738-3.022v-15.79l35.323-34.373c.792-.643 1.832-1.043 2.944-1.132s2.228.138 3.159.642l25.768 21.893 35.939-37.19.002-.003z"/><path fill-rule="evenodd" d="M129.541 61.082a14.54 14.54 0 0 0 13.434-8.976c1.101-2.657 1.389-5.581.828-8.401a14.54 14.54 0 0 0-11.425-11.425 14.54 14.54 0 0 0-14.927 6.182 14.54 14.54 0 0 0-1.344 13.643 14.52 14.52 0 0 0 3.152 4.718 14.54 14.54 0 0 0 10.282 4.259h0z"/></g></svg>