<svg xmlns="http://www.w3.org/2000/svg" width="30" height="29" fill="none" xmlns:v="https://vecta.io/nano"><path d="M14.049 1.677c.299-.921 1.603-.921 1.902 0l2.697 8.301a1 1 0 0 0 .951.691h8.729c.969 0 1.372 1.24.588 1.809l-7.062 5.131a1 1 0 0 0-.363 1.118l2.697 8.301c.299.921-.755 1.687-1.539 1.118l-7.062-5.131a1 1 0 0 0-1.176 0l-7.062 5.131c-.784.569-1.838-.197-1.539-1.118l2.697-8.301a1 1 0 0 0-.363-1.118l-7.062-5.131c-.784-.569-.381-1.809.588-1.809h8.729a1 1 0 0 0 .951-.691l2.697-8.301z" fill="#ffcc47"/></svg>